<?xml version="1.0" encoding="UTF-8"?>
<svg id="BusMarker" xmlns="http://www.w3.org/2000/svg" version="1.1" viewBox="0 0 52.99 69.99">
  <!-- Generator: Adobe Illustrator 29.8.1, SVG Export Plug-In . SVG Version: 2.1.1 Build 2)  -->
  <defs>
    <style>
      .st0 {
        fill: #fff;
      }

      .st1 {
        fill: #0b7a26;
      }
    </style>
  </defs>
  <path id="halo" class="st0" d="M26.49,0c1.56,0,3.11.52,4.38,1.55,3.68,2.93,22.12,18.71,22.12,39.94.01,17.84-13.46,28.5-26.49,28.5S0,59.33,0,41.49C0,20.26,18.44,4.48,22.14,1.54,23.4.52,24.94.01,26.49.01h0Z"/>
  <path id="route_color" class="st1" d="M26.5,67.49c-11.5,0-24-9.5-24-26C2.5,23.99,16.3,9.39,23.7,3.49c1.6-1.3,4-1.3,5.6,0,7.4,5.9,21.2,20.5,21.2,38,0,16.5-12.5,26-24,26Z"/>
  <path id="center_ring" class="st0" d="M26.5,27.99c8.55,0,15.5,6.95,15.5,15.5s-6.95,15.5-15.5,15.5-15.5-6.95-15.5-15.5,6.95-15.5,15.5-15.5ZM26.5,52.49c4.97,0,9-4.03,9-9s-4.03-9-9-9-9,4.03-9,9,4.03,9,9,9Z"/>
  <path id="heading_arrow" class="st0" d="M26.5,8.49l10,18c-6.67-4-13.33-4-20,0l10-18Z"/>
</svg>