<?xml version="1.0" encoding="UTF-8"?>
<svg xmlns="http://www.w3.org/2000/svg" version="1.1" xmlns:cc="http://creativecommons.org/ns#" xmlns:dc="http://purl.org/dc/elements/1.1/" xmlns:inkscape="http://www.inkscape.org/namespaces/inkscape" xmlns:rdf="http://www.w3.org/1999/02/22-rdf-syntax-ns#" xmlns:sodipodi="http://sodipodi.sourceforge.net/DTD/sodipodi-0.dtd" xmlns:svg="http://www.w3.org/2000/svg" viewBox="0 0 150 150">
  <!-- Generator: Adobe Illustrator 30.0.0, SVG Export Plug-In . SVG Version: 2.1.1 Build 123)  -->
  <defs>
    <style>
      .st0 {
        fill: #fff;
        fill-rule: evenodd;
      }
    </style>
  </defs>
  <g id="svg2" inkscape:version="0.48.2 r9819" sodipodi:docname="RWBA_Bus.svg">
    <sodipodi:namedview id="namedview8" bordercolor="#666666" borderopacity="1" gridtolerance="10" guidetolerance="10" inkscape:current-layer="svg2" inkscape:cx="75" inkscape:cy="75" inkscape:pageopacity="0" inkscape:pageshadow="2" inkscape:window-height="480" inkscape:window-maximized="0" inkscape:window-width="640" inkscape:window-x="0" inkscape:window-y="0" inkscape:zoom="1.5733333" objecttolerance="10" pagecolor="#ffffff" showgrid="false"/>
    <path id="path6" class="st0" d="M122.5,92.5c0-6.21-5.04-11.25-11.25-11.25-1.97,0-3.91.52-5.62,1.51-3.48,2.01-5.62,5.72-5.62,9.74h-46.25c0-6.21-5.04-11.25-11.25-11.25-1.97,0-3.91.52-5.62,1.51-3.48,2.01-5.62,5.72-5.63,9.74H15c-2.76,0-5-2.24-5-5v-13.95c0-.7.1-1.39.29-2.06l5.1-17.86c.61-2.15,2.58-3.63,4.81-3.63h113.55c.69,0,1.25.56,1.25,1.25v2.5c0,.59-.42,1.1-1,1.22h0c-.68.14-1.11.8-.97,1.48.01.06.03.11.05.17l6.48,18.16c.29.81.44,1.66.44,2.52v12.7c0,1.38-1.12,2.5-2.5,2.5h-15ZM133.59,72.5h-14.96c-1.04,0-1.88-.84-1.88-1.88h0v-13.75c0-1.04.84-1.88,1.88-1.88h10.05c.79,0,1.5.5,1.77,1.24l4.91,13.75c.35.98-.16,2.05-1.14,2.4-.2.07-.42.11-.63.11ZM111.62,72.5h-13.14c-1.04,0-1.88-.84-1.88-1.88,0-.17.02-.35.07-.52l3.93-13.75c.23-.8.97-1.36,1.8-1.36h9.21c1.04,0,1.88.84,1.88,1.88v13.75c0,1.04-.84,1.88-1.88,1.88h0ZM91.34,72.5h-12.6c-1.04,0-1.88-.84-1.88-1.87,0-.17.02-.35.07-.52l3.93-13.75c.23-.8.97-1.36,1.8-1.36h12.6c1.04,0,1.88.84,1.88,1.88,0,.17-.02.35-.07.52l-3.93,13.75c-.23.8-.97,1.36-1.8,1.36ZM71.59,72.5h-12.6c-1.04,0-1.88-.84-1.87-1.88,0-.17.02-.35.07-.52l3.93-13.75c.23-.8.97-1.36,1.8-1.36h12.6c1.04,0,1.88.84,1.88,1.88,0,.17-.02.35-.07.52l-3.93,13.75c-.23.8-.97,1.36-1.8,1.36ZM51.84,72.5h-12.6c-1.04,0-1.88-.84-1.87-1.88,0-.17.02-.35.07-.52l3.93-13.75c.23-.8.97-1.36,1.8-1.36h12.6c1.04,0,1.88.84,1.88,1.88,0,.17-.02.35-.07.52l-3.93,13.75c-.23.8-.97,1.36-1.8,1.36ZM32.09,72.5h-12.6c-1.04,0-1.88-.84-1.88-1.88,0-.17.02-.35.07-.52l3.93-13.75c.23-.8.97-1.36,1.8-1.36h12.6c1.04,0,1.88.84,1.88,1.88,0,.17-.02.35-.07.52l-3.93,13.75c-.23.8-.97,1.36-1.8,1.36ZM33.75,92.5c0-4.83,3.92-8.75,8.75-8.75,1.54,0,3.04.4,4.38,1.17,4.19,2.42,5.62,7.77,3.2,11.95-.77,1.33-1.87,2.43-3.2,3.2-4.19,2.42-9.54.98-11.95-3.2-.77-1.33-1.17-2.84-1.17-4.38M102.5,92.5c0-4.83,3.92-8.75,8.75-8.75,1.54,0,3.04.4,4.38,1.17,4.19,2.42,5.62,7.77,3.2,11.95-.77,1.33-1.87,2.43-3.2,3.2-4.19,2.42-9.54.98-11.95-3.2-.77-1.33-1.17-2.84-1.17-4.38Z"/>
  </g>
</svg>