<?xml version="1.0" encoding="UTF-8"?>
<svg xmlns="http://www.w3.org/2000/svg" version="1.1" xmlns:cc="http://creativecommons.org/ns#" xmlns:dc="http://purl.org/dc/elements/1.1/" xmlns:inkscape="http://www.inkscape.org/namespaces/inkscape" xmlns:rdf="http://www.w3.org/1999/02/22-rdf-syntax-ns#" xmlns:sodipodi="http://sodipodi.sourceforge.net/DTD/sodipodi-0.dtd" xmlns:svg="http://www.w3.org/2000/svg" viewBox="0 0 150 150">
  <!-- Generator: Adobe Illustrator 30.0.0, SVG Export Plug-In . SVG Version: 2.1.1 Build 123)  -->
  <defs>
    <style>
      .st0 {
        fill: #fff;
      }
    </style>
  </defs>
  <g id="svg2" inkscape:version="0.48.2 r9819" sodipodi:docname="RWBA_Bus.svg">
    <sodipodi:namedview id="namedview8" bordercolor="#666666" borderopacity="1" gridtolerance="10" guidetolerance="10" inkscape:current-layer="svg2" inkscape:cx="75" inkscape:cy="75" inkscape:pageopacity="0" inkscape:pageshadow="2" inkscape:window-height="480" inkscape:window-maximized="0" inkscape:window-width="640" inkscape:window-x="0" inkscape:window-y="0" inkscape:zoom="1.5733333" objecttolerance="10" pagecolor="#ffffff" showgrid="false"/>
    <g>
      <path class="st0" d="M143.86,89.02c-5.56,1.83-9.59,7.07-9.59,13.24,0,2.45.64,4.85,1.87,6.98,1.78,3.09,4.58,5.22,7.72,6.26v-26.48Z"/>
      <path class="st0" d="M139.25,86.73c1.45-.83,3-1.44,4.6-1.85v-14.51h-.84c-1.65,0-2.99-1.34-2.99-2.99,0-.28.04-.55.12-.82l3.71-13v-19.07h-31.19c-3.56,0-6.69,2.36-7.67,5.78l-8.14,28.48c-.31,1.07-.46,2.17-.46,3.29v22.24c0,4.4,3.57,7.97,7.97,7.97h25.91c0-6.41,3.42-12.33,8.97-15.53ZM131.62,70.38h-20.09c-1.65,0-2.99-1.34-2.99-2.99,0-.28.04-.55.12-.82l6.26-21.92c.37-1.28,1.54-2.17,2.87-2.17h20.09c1.65,0,2.99,1.34,2.99,2.99,0,.28-.04.55-.12.82l-6.26,21.92c-.37,1.28-1.54,2.17-2.87,2.17Z"/>
    </g>
    <g>
      <path class="st0" d="M15.07,89.7c-2.1-1.21-4.49-1.85-6.92-1.85-.54,0-1.07.04-1.6.1v27.45c2.85.34,5.84-.2,8.52-1.75,2.1-1.21,3.85-2.96,5.06-5.06,3.82-6.62,1.55-15.07-5.06-18.89Z"/>
      <path class="st0" d="M52.91,73.66l-10.25-28.7c-.03-.09-.06-.18-.07-.27-.22-1.07.47-2.11,1.54-2.33h0c.92-.19,1.58-1,1.58-1.94v-3.95c0-1.09-.88-1.98-1.98-1.98H6.55v7.9h2.19c1.64,0,2.96,1.33,2.96,2.96v21.74c0,1.64-1.33,2.96-2.96,2.96h-2.19v13.94c.53-.05,1.06-.11,1.6-.11,9.82,0,17.78,7.96,17.78,17.78h23.71c2.18,0,3.95-1.77,3.95-3.95v-20.08c0-1.36-.23-2.71-.69-3.99ZM44.46,69.89c-.32.11-.66.17-1,.17h-23.65c-1.64,0-2.96-1.33-2.96-2.96v-21.74c0-1.64,1.33-2.96,2.96-2.96h15.89c1.25,0,2.37.79,2.79,1.97l7.76,21.74c.55,1.54-.25,3.24-1.79,3.79Z"/>
    </g>
    <path class="st0" d="M75,56.72c-10.1,0-18.28,8.18-18.28,18.28s8.18,18.28,18.28,18.28,18.28-8.18,18.28-18.28-8.18-18.28-18.28-18.28ZM75,90.47c-8.53,0-15.47-6.94-15.47-15.47s6.94-15.47,15.47-15.47,15.47,6.94,15.47,15.47-6.94,15.47-15.47,15.47ZM61.31,56.92c-.39-.68-.16-1.53.51-1.92l2.44-1.41c.67-.39,1.53-.16,1.92.52l1.51,2.62c-1.76.71-3.39,1.66-4.87,2.82l-1.52-2.63ZM87.17,59.55c-1.47-1.16-3.1-2.11-4.87-2.82l1.51-2.62c.39-.68,1.25-.91,1.92-.52l2.43,1.41c.67.39.9,1.25.52,1.92l-1.52,2.63ZM70.78,52.5v-2.81c0-.78.63-1.41,1.41-1.41h5.62c.78,0,1.41.63,1.41,1.41v2.81c0,.78-.63,1.41-1.41,1.41v1.63c-.92-.13-1.86-.23-2.81-.23s-1.89.09-2.81.23v-1.63c-.78,0-1.41-.63-1.41-1.41ZM75,62.34l2.81,12.66c0,1.55-1.26,2.81-2.81,2.81s-2.81-1.26-2.81-2.81l2.81-12.66Z"/>
  </g>
</svg>