<?xml version="1.0" encoding="UTF-8"?>
<svg xmlns="http://www.w3.org/2000/svg" version="1.1" xmlns:cc="http://creativecommons.org/ns#" xmlns:dc="http://purl.org/dc/elements/1.1/" xmlns:inkscape="http://www.inkscape.org/namespaces/inkscape" xmlns:rdf="http://www.w3.org/1999/02/22-rdf-syntax-ns#" xmlns:sodipodi="http://sodipodi.sourceforge.net/DTD/sodipodi-0.dtd" xmlns:svg="http://www.w3.org/2000/svg" viewBox="0 0 150 150">
  <!-- Generator: Adobe Illustrator 30.0.0, SVG Export Plug-In . SVG Version: 2.1.1 Build 123)  -->
  <g id="svg2" inkscape:version="0.48.2 r9819" sodipodi:docname="RWBA_Bus.svg">
    <sodipodi:namedview id="namedview8" bordercolor="#666666" borderopacity="1" gridtolerance="10" guidetolerance="10" inkscape:current-layer="svg2" inkscape:cx="75" inkscape:cy="75" inkscape:pageopacity="0" inkscape:pageshadow="2" inkscape:window-height="480" inkscape:window-maximized="0" inkscape:window-width="640" inkscape:window-x="0" inkscape:window-y="0" inkscape:zoom="1.5733333" objecttolerance="10" pagecolor="#ffffff" showgrid="false"/>
    <g>
      <path d="M140,84.19c-3.49,1.15-6.01,4.43-6.01,8.31,0,1.54.4,3.04,1.17,4.38,1.12,1.94,2.87,3.28,4.84,3.93v-16.61Z"/>
      <path d="M137.11,82.76c.91-.52,1.88-.91,2.89-1.16v-9.1h-.53c-1.04,0-1.88-.84-1.88-1.88,0-.17.02-.35.07-.52l2.33-8.15v-11.96h-19.56c-2.23,0-4.19,1.48-4.81,3.63l-5.1,17.86c-.19.67-.29,1.36-.29,2.06v13.95c0,2.76,2.24,5,5,5h16.25c0-4.02,2.14-7.73,5.62-9.74ZM132.32,72.5h-12.6c-1.04,0-1.88-.84-1.88-1.88,0-.17.02-.35.07-.52l3.93-13.75c.23-.8.97-1.36,1.8-1.36h12.6c1.04,0,1.88.84,1.88,1.88,0,.17-.02.35-.07.52l-3.93,13.75c-.23.8-.97,1.36-1.8,1.36Z"/>
    </g>
    <g>
      <path d="M15.39,84.92c-1.33-.77-2.84-1.17-4.38-1.17-.34,0-.68.02-1.01.06v17.37c1.81.21,3.69-.12,5.39-1.1,1.33-.77,2.43-1.87,3.2-3.2,2.42-4.19.98-9.54-3.2-11.95Z"/>
      <path d="M39.32,74.78l-6.48-18.16c-.02-.05-.04-.11-.05-.17-.14-.68.3-1.34.97-1.48h0c.58-.12,1-.63,1-1.22v-2.5c0-.69-.56-1.25-1.25-1.25H10v5h1.39c1.04,0,1.88.84,1.88,1.88v13.75c0,1.04-.84,1.88-1.88,1.88h-1.39v8.82c.34-.03.67-.07,1.01-.07,6.21,0,11.25,5.04,11.25,11.25h15c1.38,0,2.5-1.12,2.5-2.5v-12.7c0-.86-.15-1.71-.44-2.52ZM33.98,72.39c-.2.07-.42.11-.63.11h-14.96c-1.04,0-1.88-.84-1.88-1.88v-13.75c0-1.04.84-1.88,1.88-1.88h10.05c.79,0,1.5.5,1.77,1.24l4.91,13.75c.35.98-.16,2.05-1.14,2.4Z"/>
    </g>
    <path d="M75,43.9c-17.4,0-31.5,14.1-31.5,31.5s14.1,31.5,31.5,31.5,31.5-14.1,31.5-31.5-14.1-31.5-31.5-31.5ZM75,102.05c-14.7,0-26.65-11.96-26.65-26.65s11.95-26.65,26.65-26.65,26.65,11.95,26.65,26.65-11.96,26.65-26.65,26.65ZM51.42,44.25c-.67-1.16-.27-2.64.89-3.31l4.2-2.42c1.15-.67,2.64-.27,3.31.89l2.61,4.51c-3.04,1.22-5.85,2.87-8.39,4.87l-2.62-4.53ZM95.97,48.78c-2.53-2-5.35-3.64-8.39-4.87l2.61-4.51c.67-1.16,2.15-1.56,3.31-.89l4.19,2.42c1.16.67,1.56,2.15.89,3.31l-2.62,4.53ZM67.73,36.63v-4.85c0-1.34,1.08-2.42,2.42-2.42h9.69c1.34,0,2.42,1.08,2.42,2.42v4.85c0,1.34-1.08,2.42-2.42,2.42v2.81c-1.59-.23-3.2-.39-4.85-.39s-3.26.16-4.85.39v-2.81c-1.34,0-2.42-1.08-2.42-2.42ZM75,53.59l4.85,21.81c0,2.68-2.17,4.85-4.85,4.85s-4.85-2.17-4.85-4.85l4.85-21.81Z"/>
  </g>
</svg>