<?xml version="1.0" encoding="UTF-8"?>
<svg xmlns="http://www.w3.org/2000/svg" version="1.1" viewBox="0 0 150 150">
  <defs>
    <style>
      .st0 {
        fill: #fff;
      }
    </style>
  </defs>
  <path class="st0" d="M75,20c-4.5,0-8.1,3.6-8.1,8.1v3.9c-19.6,3.6-34.5,20.8-34.5,41.5v20.6l-9.9,17.1c-1.5,2.5-1.5,5.6,0,8.1,1.5,2.5,4.1,4,7,4h91c2.9,0,5.5-1.5,7-4,1.5-2.5,1.5-5.6,0-8.1l-9.9-17.1v-20.6c0-20.7-14.9-37.9-34.5-41.5v-3.9c0-4.5-3.6-8.1-8.1-8.1ZM75,132.5c7.5,0,13.6-6.1,13.6-13.6h-27.2c0,7.5,6.1,13.6,13.6,13.6Z"/>
</svg>
