<?xml version="1.0" encoding="UTF-8"?>
<svg xmlns="http://www.w3.org/2000/svg" version="1.1" xmlns:cc="http://creativecommons.org/ns#" xmlns:dc="http://purl.org/dc/elements/1.1/" xmlns:inkscape="http://www.inkscape.org/namespaces/inkscape" xmlns:rdf="http://www.w3.org/1999/02/22-rdf-syntax-ns#" xmlns:sodipodi="http://sodipodi.sourceforge.net/DTD/sodipodi-0.dtd" xmlns:svg="http://www.w3.org/2000/svg" viewBox="0 0 30 30">
  <!-- Generator: Adobe Illustrator 29.8.2, SVG Export Plug-In . SVG Version: 2.1.1 Build 3)  -->
  <defs>
    <style>
      .st0 {
        fill: #fff;
      }
    </style>
  </defs>
  <g id="svg822" inkscape:version="0.92.4 (f8dce91, 2019-08-02)" sodipodi:docname="repeat.svg">
    <sodipodi:namedview id="base" bordercolor="#666666" borderopacity="1.0" inkscape:current-layer="layer1" inkscape:cx="14.349319" inkscape:cy="19.133748" inkscape:document-units="px" inkscape:pageopacity="0.0" inkscape:pageshadow="2" inkscape:window-height="713" inkscape:window-maximized="1" inkscape:window-width="1366" inkscape:window-x="0" inkscape:window-y="0" inkscape:zoom="32" pagecolor="#ffffff" showgrid="true" showguides="false" units="px">
      <inkscape:grid id="grid816" type="xygrid"/>
    </sodipodi:namedview>
    <g>
      <path class="st0" d="M15,24c-4.96,0-9-4.04-9-9,0-.55.45-1,1-1s1,.45,1,1c0,3.86,3.14,7,7,7s7-3.14,7-7-3.14-7-7-7c-.55,0-1-.45-1-1s.45-1,1-1c4.96,0,9,4.04,9,9s-4.04,9-9,9Z"/>
      <polygon class="st0" points="15.96 3.71 10.26 7 15.96 10.29 15.96 3.71"/>
    </g>
  </g>
</svg>