<?xml version="1.0" encoding="UTF-8"?>
<svg xmlns="http://www.w3.org/2000/svg" version="1.1" xmlns:cc="http://creativecommons.org/ns#" xmlns:dc="http://purl.org/dc/elements/1.1/" xmlns:inkscape="http://www.inkscape.org/namespaces/inkscape" xmlns:rdf="http://www.w3.org/1999/02/22-rdf-syntax-ns#" xmlns:sodipodi="http://sodipodi.sourceforge.net/DTD/sodipodi-0.dtd" xmlns:svg="http://www.w3.org/2000/svg" viewBox="0 0 30 30">
  <!-- Generator: Adobe Illustrator 29.8.2, SVG Export Plug-In . SVG Version: 2.1.1 Build 3)  -->
  <defs>
    <style>
      .st0 {
        fill: #fff;
      }
    </style>
  </defs>
  <g id="svg822" inkscape:version="0.92.4 (f8dce91, 2019-08-02)" sodipodi:docname="repeat.svg">
    <sodipodi:namedview id="base" bordercolor="#666666" borderopacity="1.0" inkscape:current-layer="layer1" inkscape:cx="14.349319" inkscape:cy="19.133748" inkscape:document-units="px" inkscape:pageopacity="0.0" inkscape:pageshadow="2" inkscape:window-height="713" inkscape:window-maximized="1" inkscape:window-width="1366" inkscape:window-x="0" inkscape:window-y="0" inkscape:zoom="32" pagecolor="#ffffff" showgrid="true" showguides="false" units="px">
      <inkscape:grid id="grid816" type="xygrid"/>
    </sodipodi:namedview>
    <g>
      <path class="st0" d="M15,25c-5.51,0-10-4.49-10-10,0-1.1.9-2,2-2s2,.9,2,2c0,3.31,2.69,6,6,6s6-2.69,6-6-2.69-6-6-6c-1.1,0-2-.9-2-2s.9-2,2-2c5.51,0,10,4.49,10,10s-4.49,10-10,10Z"/>
      <polygon class="st0" points="16.4 2.21 8.11 7 16.4 11.79 16.4 2.21"/>
    </g>
  </g>
</svg>