<?xml version="1.0" encoding="UTF-8"?>
<svg id="Layer_1" xmlns="http://www.w3.org/2000/svg" version="1.1" viewBox="0 0 48.48 35.25">
  <!-- Generator: Adobe Illustrator 29.8.2, SVG Export Plug-In . SVG Version: 2.1.1 Build 3)  -->
  <defs>
    <style>
      .st0 {
        fill: #fffffe;
      }
    </style>
  </defs>
  <path class="st0" d="M19.7,0c1.62,0,2.92,2.31,2.92,5.16s-1.31,5.15-2.92,5.15H2.93c-1.62,0-2.93-2.3-2.93-5.15S1.31,0,2.93,0h16.77Z"/>
  <path class="st0" d="M22.85,17.65c0,2.82-2.28,5.11-5.1,5.11s-5.1-2.29-5.1-5.11,2.29-5.1,5.1-5.1c2.82,0,5.1,2.29,5.1,5.1h0Z"/>
  <path class="st0" d="M22.88,30.05c0,2.82-2.28,5.11-5.1,5.11s-5.1-2.29-5.1-5.11,2.29-5.09,5.1-5.09c2.81,0,5.1,2.28,5.1,5.09h0Z"/>
  <path class="st0" d="M27.07,12.51h7.64c.68,0,1.24.56,1.24,1.24v7.64c0,.68-.56,1.24-1.24,1.24h-7.64c-.68,0-1.24-.56-1.24-1.24v-7.64c0-.68.55-1.24,1.24-1.24Z"/>
  <path class="st0" d="M27.07.11h7.64c.68,0,1.24.56,1.24,1.24v7.64c0,.68-.56,1.24-1.24,1.24h-7.64c-.68,0-1.24-.56-1.24-1.24V1.35c0-.68.56-1.24,1.24-1.24Z"/>
  <path class="st0" d="M45.56,24.94c1.62,0,2.92,2.31,2.92,5.16s-1.31,5.16-2.92,5.16h-16.78c-1.61,0-2.93-2.31-2.93-5.16s1.31-5.16,2.93-5.16h16.78Z"/>
</svg>