<?xml version="1.0" encoding="UTF-8"?>
<svg id="Layer_1" xmlns="http://www.w3.org/2000/svg" version="1.1" viewBox="0 0 800 800">
  <!-- Generator: Adobe Illustrator 30.1.0, SVG Export Plug-In . SVG Version: 2.1.1 Build 136)  -->
  <defs>
    <style>
      .st0 {
        fill: #fff;
        fill-rule: evenodd;
      }
    </style>
  </defs>
  <path class="st0" d="M327.94,614.89c5.74,10.75,11.48,20.44,16.97,29.02-58.33-13.12-108.94-46.62-143.96-92.63,23.11-13.02,52.72-26.51,88.31-36.38,10.12,39.67,24.39,73.18,38.69,100ZM372.06,591.36c-12.42-23.29-24.87-52.38-33.84-86.84,19.31-2.87,39.92-4.52,61.79-4.52s42.47,1.65,61.78,4.52c-8.97,34.47-21.42,63.55-33.84,86.84-9.96,18.68-19.88,33.59-27.94,44.5-8.06-10.91-17.98-25.82-27.94-44.5ZM325,400c0,19.47,1.31,37.95,3.62,55.4,22.28-3.42,46.09-5.4,71.38-5.4s49.1,1.98,71.38,5.4c2.31-17.45,3.62-35.93,3.62-55.4s-1.31-37.95-3.62-55.4c-22.27,3.42-46.09,5.4-71.38,5.4s-49.11-1.98-71.38-5.4c-2.31,17.45-3.62,35.93-3.62,55.4ZM279.56,334.29c-2.9,20.63-4.56,42.55-4.56,65.71s1.66,45.07,4.56,65.71c-42.45,11.4-77.6,27.47-104.79,42.93-15.88-32.85-24.77-69.7-24.77-108.64s8.9-75.79,24.77-108.64c27.18,15.46,62.34,31.53,104.79,42.93ZM338.22,295.48c19.31,2.87,39.92,4.52,61.79,4.52s42.47-1.65,61.78-4.52c-8.97-34.46-21.42-63.55-33.84-86.84-9.96-18.68-19.88-33.59-27.94-44.5-8.06,10.91-17.98,25.82-27.94,44.5-12.42,23.29-24.87,52.38-33.84,86.84ZM520.44,334.3c2.9,20.63,4.56,42.55,4.56,65.7s-1.66,45.07-4.56,65.7c42.45,11.4,77.6,27.47,104.79,42.93,15.87-32.85,24.77-69.71,24.77-108.64s-8.9-75.78-24.77-108.64c-27.18,15.46-62.34,31.53-104.79,42.93ZM599.05,248.73c-23.12,13.02-52.72,26.51-88.31,36.38-10.12-39.67-24.39-73.19-38.69-100-5.74-10.75-11.48-20.44-16.97-29.02,58.33,13.12,108.94,46.62,143.96,92.64ZM289.26,285.11c-35.59-9.87-65.19-23.37-88.31-36.38,35.02-46.01,85.64-79.52,143.96-92.63-5.49,8.58-11.23,18.27-16.97,29.02-14.3,26.81-28.57,60.32-38.69,100ZM510.75,514.89c-10.12,39.68-24.39,73.19-38.69,100-5.74,10.75-11.48,20.44-16.97,29.02,58.33-13.12,108.94-46.62,143.97-92.64-23.12-13.02-52.72-26.51-88.31-36.38ZM400,700c165.69,0,300-134.31,300-300S565.69,100,400,100,100,234.31,100,400s134.31,300,300,300Z"/>
</svg>